<?xml version="1.0" encoding="utf-8"?>
<!-- Generator: Adobe Illustrator 21.1.0, SVG Export Plug-In . SVG Version: 6.00 Build 0)  -->
<svg version="1.1" id="Layer_1" xmlns="http://www.w3.org/2000/svg" xmlns:xlink="http://www.w3.org/1999/xlink" x="0px" y="0px"
	 viewBox="0 0 784 519.6" style="enable-background:new 0 0 784 519.6;" xml:space="preserve">
<style type="text/css">
	.st0{fill:#FFFFFF;}
</style>
<g>
	<path class="st0" d="M320.9,346c0,6.5-0.5,12-1.7,16.6s-2.7,8.2-4.7,11.1c-2,2.9-4.4,4.9-7.1,6.2c-2.8,1.3-5.8,1.9-9,1.9l-13.2-3.6
		c-1.8-1.1-3.6-2.6-5.3-4.4v-50c3-3.6,6.2-6.4,9.6-8.3c3.3-1.9,7.5-2.9,12.7-2.9c2.8,0,5.3,0.6,7.6,1.7c2.3,1.2,4.3,3,5.9,5.7
		c1.6,2.6,2.9,6,3.8,10.3C320.5,334.5,320.9,339.7,320.9,346z"/>
	<g>
		<path class="st0" d="M553.2,91.2l-65.1,238.9c-0.7-3-1.6-5.9-2.7-8.7c-2.9-7.5-7-13.8-12.3-19c-5.3-5.3-11.6-9.3-18.9-12.1
			c-7.4-2.8-15.5-4.2-24.4-4.2c-9,0-17.3,1.4-24.6,4.2c-7.4,2.8-13.8,6.8-19.1,12.1c-5.4,5.2-9.5,11.6-12.4,19
			c-0.7,1.7-1.3,3.4-1.8,5.3l-31.1-203l-163.2,25L218.1,0L553.2,91.2z"/>
		<path class="st0" d="M470.9,393.4l-9,32.9L384,405.1l-3-19.8c1.5,2.1,3.3,4.1,5.2,6c5.3,5.3,11.7,9.3,19.1,12.2
			c7.4,2.8,15.6,4.3,24.6,4.3c8.9,0,17.1-1.5,24.4-4.3C460.6,401,466.1,397.6,470.9,393.4z"/>
		<path class="st0" d="M367.1,400.5L327.4,142L173,165.7L0,192.2l18.6,121.4v-73.4h106.6v29.6h-68v38.7h52.1v28.4h-52v39.4h68v29.6
			H32.8l17.5,113.7l327.4-50.2L367.1,400.5z M223.8,383.7c-2.1,4.9-5.3,9.1-9.5,12.7s-9.4,6.3-15.6,8.3c-6.2,1.9-13.3,3-21.3,3
			c-4,0-8.1-0.4-12.1-1.2c-4-0.7-7.9-1.8-11.6-3c-3.8-1.3-7.3-2.9-10.4-4.6c-3.2-1.8-6-3.7-8.2-5.8l8.2-13c0.9-1.5,2-2.7,3.4-3.6
			c1.4-0.9,3.2-1.3,5.4-1.3c2,0,3.9,0.4,5.5,1.4c1.6,0.9,3.4,1.9,5.3,3c1.9,1.1,4.1,2.1,6.7,3c2.5,0.9,5.7,1.4,9.6,1.4
			c2.8,0,5-0.3,7-0.9c1.9-0.6,3.4-1.4,4.5-2.3c1.1-1,1.9-2.1,2.5-3.3c0.5-1.2,0.8-2.5,0.8-3.8c0-2.4-0.8-4.3-2.4-5.8
			c-1.6-1.5-3.7-2.8-6.2-3.9c-2.6-1.1-5.5-2.1-8.8-3c-3.3-1-6.7-2-10.1-3.2c-3.4-1.2-6.8-2.7-10.1-4.4s-6.2-3.9-8.8-6.5
			c-2.1-2.1-3.9-4.6-5.3-7.5c-0.4-0.7-0.7-1.4-1-2c-1.6-3.8-2.4-8.4-2.4-13.8c0-5,1-9.7,2.9-14.3c1.9-4.5,4.8-8.5,8.7-11.9
			s8.7-6.1,14.6-8.1c5.8-2,12.6-3,20.5-3c4.2,0,8.3,0.3,12.3,1.1s7.7,1.8,11.2,3.2s6.7,3,9.6,4.8c2.9,1.8,5.4,3.9,7.6,6l-7.9,12.4
			c-0.9,1.4-1.9,2.5-2.9,3c-1.1,0.6-2.4,0.9-3.9,0.9c-1.7,0-3.3-0.4-5-1.1c-1.6-0.7-3.5-1.5-5.4-2.4c-1.9-0.8-4.1-1.6-6.6-2.3
			c-2.4-0.7-5.2-1.1-8.3-1.1c-4.5,0-7.9,0.8-10.3,2.6c-2.4,1.7-3.6,4.1-3.6,7.1c0,2.2,0.8,4,2.3,5.4c1.5,1.5,3.6,2.7,6.2,3.8
			c2.6,1.1,5.5,2.1,8.8,3.1s6.6,2.1,10,3.3s6.8,2.6,10,4.3s6.2,3.6,8.8,6s4.6,5.3,6.2,8.7c0.9,2.1,1.6,4.4,1.9,7
			c0.3,1.6,0.4,3.4,0.4,5.3C227,373.4,225.9,378.8,223.8,383.7z M353.6,370.5c-2.5,7.5-5.9,14-10.4,19.5c-0.9,1.1-1.8,2.2-2.8,3.2
			c-3.8,4.1-8.2,7.3-13.1,9.8c-6.2,3.1-13,4.7-20.5,4.7c-6.1,0-11.3-0.9-15.5-2.6c-4.2-1.7-7.9-4.1-11.4-7.1v45.2h-35.2V288h21.8
			c4.4,0,7.3,2,8.7,5.9l2.6,8.7c4.6-4.9,9.9-9,15.7-12.1c5.9-3.1,12.9-4.7,21-4.7c6.1,0,11.8,1.4,17,4.1c5.2,2.7,9.7,6.7,13.5,11.8
			c3.8,5.2,6.8,11.5,8.9,18.9c2.2,7.5,3.2,16,3.2,25.4C357.3,354.8,356.1,363,353.6,370.5z"/>
		<path class="st0" d="M453.5,346.8c0,11.7-1.9,20.4-5.7,26.1c-3.8,5.7-9.8,8.6-17.9,8.6c-8.4,0-14.5-2.9-18.3-8.6
			s-5.8-14.4-5.8-26.1c0-11.7,1.9-20.3,5.8-26s10-8.5,18.3-8.5c8.1,0,14.1,2.9,17.9,8.5C451.6,326.5,453.5,335.2,453.5,346.8z"/>
		<path class="st0" d="M582.4,289.5l-2.3,25.9c-0.4,1.7-1,2.8-1.9,3.4c-0.9,0.6-2,0.9-3.6,0.9c-0.6,0-1.4,0-2.4-0.1
			c-1,0-2-0.1-3-0.2c-1.1-0.1-2.2-0.2-3.2-0.4c-1.1-0.1-2.1-0.1-3-0.1c-5.1,0-9.2,1.4-12.3,4.1c-3,2.7-5.7,6.5-7.8,11.4V406h-35.2
			V288h20.9c1.7,0,3.2,0.1,4.4,0.5c1.2,0.3,2.1,0.8,3,1.4c0.8,0.6,1.4,1.5,1.8,2.6c0.4,1.1,0.8,2.3,1.1,3.9l1.8,9.9
			c3.7-6.3,7.8-11.4,12.6-15c4.7-3.6,10.2-5.5,16.3-5.5C574.8,285.7,579.1,286.9,582.4,289.5z"/>
		<path class="st0" d="M669.1,289.5l-2.3,25.9c-0.4,1.7-1,2.8-1.9,3.4c-0.9,0.6-2,0.9-3.6,0.9c-0.6,0-1.4,0-2.4-0.1
			c-1,0-2-0.1-3-0.2c-1.1-0.1-2.2-0.2-3.2-0.4c-1.1-0.1-2.1-0.1-3-0.1c-5.1,0-9.2,1.4-12.3,4.1c-3,2.7-5.7,6.5-7.8,11.4V406h-35.2
			V288h20.9c1.7,0,3.2,0.1,4.4,0.5c1.2,0.3,2.1,0.8,3,1.4c0.8,0.6,1.4,1.5,1.8,2.6c0.4,1.1,0.8,2.3,1.1,3.9l1.8,9.9
			c3.7-6.3,7.8-11.4,12.6-15c4.7-3.6,10.2-5.5,16.3-5.5C661.5,285.7,665.8,286.9,669.1,289.5z"/>
		<path class="st0" d="M779.9,352.6c1-0.4,1.8-1.1,2.5-2c0.6-1,1-2.3,1.3-4c0.2-1.7,0.3-3.8,0.3-6.5c0-8.5-1.3-16.1-3.9-22.8
			c-2.6-6.7-6.3-12.4-10.9-17c-4.6-4.6-10.3-8.1-16.7-10.5c-6.5-2.4-13.6-3.6-21.4-3.6c-9,0-17.1,1.5-24.3,4.6s-13.3,7.3-18.3,12.6
			s-8.9,11.5-11.6,18.5c-2.7,7-4.1,14.5-4.1,22.4c0,10.5,1.6,19.6,4.7,27.5c3.1,7.9,7.4,14.5,12.8,19.8c5.4,5.3,11.8,9.3,19,12
			s15,4.1,23.3,4.1c4,0,8.2-0.3,12.7-0.9c4.4-0.6,8.9-1.6,13.3-3c4.5-1.5,8.8-3.5,13-6.1s8.1-6,11.8-10.2l-10.3-12.7
			c-1.5-2.1-3.6-3.1-6.4-3.1c-2.1,0-4.1,0.5-6,1.5s-4.1,2.1-6.4,3.3c-2.3,1.2-4.9,2.3-7.9,3.3s-6.5,1.5-10.6,1.5
			c-7.6,0-13.9-2.2-18.8-6.6c-4.8-4.5-7.8-11.6-9-21.4h68C777.6,353.2,778.9,353,779.9,352.6z M708.5,332.8
			c1.2-7.2,3.7-12.7,7.5-16.5s9-5.8,15.7-5.8c3.8,0,7,0.7,9.6,1.9c2.7,1.3,4.8,3,6.4,5.1c1.6,2.1,2.8,4.5,3.5,7.1
			c0.7,2.7,1.1,5.4,1.1,8.2H708.5L708.5,332.8z"/>
	</g>
</g>
</svg>
